<?xml version="1.0" encoding="utf-8"?>
<!-- Generator: Adobe Illustrator 24.3.0, SVG Export Plug-In . SVG Version: 6.00 Build 0)  -->
<svg version="1.1" id="Layer_1" xmlns="http://www.w3.org/2000/svg" xmlns:xlink="http://www.w3.org/1999/xlink" x="0px" y="0px"
	 viewBox="0 0 576.5 575.5" enable-background="new 0 0 576.5 575.5" xml:space="preserve">
<g id="Layer_1_1_" display="none">
	<g display="inline">
		
			<rect x="21" y="-46.5" fill="#E6E6F2" stroke="#636592" stroke-width="20" stroke-linecap="round" stroke-linejoin="round" stroke-miterlimit="10" width="449" height="449"/>
		
			<polyline fill="none" stroke="#636592" stroke-width="20" stroke-linecap="round" stroke-linejoin="round" stroke-miterlimit="10" points="
			21,-46.5 167.124,95.196 210.519,274.088 21,402.5 		"/>
		
			<polyline fill="none" stroke="#636592" stroke-width="20" stroke-linecap="round" stroke-linejoin="round" stroke-miterlimit="10" points="
			470,238.664 210.519,274.088 21,154.532 167.124,95.196 257.456,-46.5 353.101,76.599 210.519,274.088 284.023,402.5 470,238.664 
			353.101,76.599 470,-46.5 		"/>
		
			<line fill="none" stroke="#636592" stroke-width="20" stroke-linecap="round" stroke-linejoin="round" stroke-miterlimit="10" x1="167.124" y1="95.196" x2="353.101" y2="76.599"/>
	</g>
</g>
<g display="none">
	
		<rect x="395" y="335.5" display="inline" fill="#29ABE2" stroke="#2E3192" stroke-width="20" stroke-linecap="round" stroke-linejoin="round" stroke-miterlimit="10" width="224" height="220"/>
	
		<path display="inline" fill="#29ABE2" stroke="#2E3192" stroke-width="20" stroke-linecap="round" stroke-linejoin="round" stroke-miterlimit="10" d="
		M394.724,555.5L619,335.283L394.724,555.5z"/>
</g>
<line fill="none" stroke="#5C1001" stroke-width="32" stroke-linejoin="round" x1="36.5" y1="288" x2="540.5" y2="288"/>
<line fill="none" stroke="#C3922E" stroke-width="32" stroke-linejoin="round" x1="288.5" y1="45" x2="288.5" y2="243"/>
<line fill="none" stroke="#C3922E" stroke-width="32" stroke-linejoin="round" x1="288.5" y1="531" x2="288.5" y2="333"/>
<polyline fill="none" stroke="#C3922E" stroke-width="32" points="171.5,153 288.5,36 405.5,153 "/>
<polyline fill="none" stroke="#C3922E" stroke-width="32" points="171.5,423 288.5,540 405.5,423 "/>
</svg>
