<?xml version="1.0" encoding="utf-8"?>
<!-- Generator: Adobe Illustrator 24.3.0, SVG Export Plug-In . SVG Version: 6.00 Build 0)  -->
<svg version="1.1" id="Layer_1" xmlns="http://www.w3.org/2000/svg" xmlns:xlink="http://www.w3.org/1999/xlink" x="0px" y="0px"
	 viewBox="0 0 576.5 575.5" enable-background="new 0 0 576.5 575.5" xml:space="preserve">
<g id="Layer_1_1_" display="none">
	<g display="inline">
		
			<rect x="21" y="-46.5" fill="#E6E6F2" stroke="#636592" stroke-width="20" stroke-linecap="round" stroke-linejoin="round" stroke-miterlimit="10" width="449" height="449"/>
		
			<polyline fill="none" stroke="#636592" stroke-width="20" stroke-linecap="round" stroke-linejoin="round" stroke-miterlimit="10" points="
			21,-46.5 167.1,95.2 210.5,274.1 21,402.5 		"/>
		
			<polyline fill="none" stroke="#636592" stroke-width="20" stroke-linecap="round" stroke-linejoin="round" stroke-miterlimit="10" points="
			470,238.7 210.5,274.1 21,154.5 167.1,95.2 257.5,-46.5 353.1,76.6 210.5,274.1 284,402.5 470,238.7 353.1,76.6 470,-46.5 		"/>
		
			<line fill="none" stroke="#636592" stroke-width="20" stroke-linecap="round" stroke-linejoin="round" stroke-miterlimit="10" x1="167.1" y1="95.2" x2="353.1" y2="76.6"/>
	</g>
</g>
<g display="none">
	
		<rect x="395" y="335.5" display="inline" fill="#29ABE2" stroke="#2E3192" stroke-width="20" stroke-linecap="round" stroke-linejoin="round" stroke-miterlimit="10" width="224" height="220"/>
	
		<path display="inline" fill="#29ABE2" stroke="#2E3192" stroke-width="20" stroke-linecap="round" stroke-linejoin="round" stroke-miterlimit="10" d="
		M394.7,555.5L619,335.3L394.7,555.5z"/>
</g>
<g>
	<path fill="none" stroke="#C3922E" stroke-width="32" stroke-linejoin="round" d="M288.1,90.6C201,148,157.5,180.6,90.4,258.4"/>
	<polyline fill="none" stroke="#C3922E" stroke-width="32" points="201,64 295.7,85.9 273.8,180.6 	"/>
</g>
<path fill="none" stroke="#636592" stroke-width="32" stroke-linejoin="round" d="M55,509.5C182,287,332,164,527,122.5"/>
<g>
	<path fill="none" stroke="#C3922E" stroke-width="32" stroke-linejoin="round" d="M230.4,463.9C269,401,324.9,349.2,398,301"/>
	<polyline fill="none" stroke="#C3922E" stroke-width="32" points="320.6,451.3 225.5,471.5 205.2,376.4 	"/>
</g>
</svg>
