<?xml version="1.0" encoding="utf-8"?>
<!-- Generator: Adobe Illustrator 21.1.0, SVG Export Plug-In . SVG Version: 6.00 Build 0)  -->
<svg version="1.1" id="Layer_1" xmlns="http://www.w3.org/2000/svg" xmlns:xlink="http://www.w3.org/1999/xlink" x="0px" y="0px"
	 viewBox="0 0 576.5 575.5" style="enable-background:new 0 0 576.5 575.5;" xml:space="preserve">
<style type="text/css">
	.st0{display:none;}
	.st1{display:inline;}
	.st2{fill:#E6E6F2;stroke:#636592;stroke-width:20;stroke-linecap:round;stroke-linejoin:round;stroke-miterlimit:10;}
	.st3{fill:none;stroke:#636592;stroke-width:20;stroke-linecap:round;stroke-linejoin:round;stroke-miterlimit:10;}
	
		.st4{display:inline;fill:#29ABE2;stroke:#2E3192;stroke-width:20;stroke-linecap:round;stroke-linejoin:round;stroke-miterlimit:10;}
	.st5{fill:none;stroke:#C3922E;stroke-width:36;stroke-linejoin:round;}
	.st6{fill:none;stroke:#C3922E;stroke-width:36;}
	.st7{fill:none;stroke:#636592;stroke-width:36;stroke-linejoin:round;}
</style>
<g id="Layer_1_1_" class="st0">
	<g class="st1">
		<rect x="21" y="-46.5" class="st2" width="449" height="449"/>
		<polyline class="st3" points="21,-46.5 167.1,95.2 210.5,274.1 21,402.5 		"/>
		<polyline class="st3" points="470,238.7 210.5,274.1 21,154.5 167.1,95.2 257.5,-46.5 353.1,76.6 210.5,274.1 284,402.5 
			470,238.7 353.1,76.6 470,-46.5 		"/>
		<line class="st3" x1="167.1" y1="95.2" x2="353.1" y2="76.6"/>
	</g>
</g>
<g class="st0">
	<rect x="395" y="335.5" class="st4" width="224" height="220"/>
	<path class="st4" d="M394.7,555.5L619,335.3L394.7,555.5z"/>
</g>
<g>
	<path class="st5" d="M288.1,90.6C201,148,157.5,180.6,90.4,258.4"/>
	<polyline class="st6" points="201,64 295.7,85.9 273.8,180.6 	"/>
</g>
<path class="st7" d="M55,509.5C182,287,332,164,527,122.5"/>
<g>
	<path class="st5" d="M230.4,463.9C269,401,324.9,349.2,398,301"/>
	<polyline class="st6" points="320.6,451.3 225.5,471.5 205.2,376.4 	"/>
</g>
</svg>
