<?xml version="1.0" encoding="utf-8"?>
<!-- Generator: Adobe Illustrator 24.3.0, SVG Export Plug-In . SVG Version: 6.00 Build 0)  -->
<svg version="1.1" id="Layer_1" xmlns="http://www.w3.org/2000/svg" xmlns:xlink="http://www.w3.org/1999/xlink" x="0px" y="0px"
	 viewBox="0 0 640 640" enable-background="new 0 0 640 640" xml:space="preserve">
<g id="Layer_1_1_" display="none">
	<g display="inline">
		
			<rect x="21" y="18" fill="#E6E6F2" stroke="#636592" stroke-width="20" stroke-linecap="round" stroke-linejoin="round" stroke-miterlimit="10" width="449" height="449"/>
		
			<polyline fill="none" stroke="#636592" stroke-width="20" stroke-linecap="round" stroke-linejoin="round" stroke-miterlimit="10" points="
			21,18 167.124,159.696 210.519,338.588 21,467 		"/>
		
			<polyline fill="none" stroke="#636592" stroke-width="20" stroke-linecap="round" stroke-linejoin="round" stroke-miterlimit="10" points="
			470,303.164 210.519,338.588 21,219.032 167.124,159.696 257.456,18 353.101,141.099 210.519,338.588 284.023,467 470,303.164 
			353.101,141.099 470,18 		"/>
		
			<line fill="none" stroke="#636592" stroke-width="20" stroke-linecap="round" stroke-linejoin="round" stroke-miterlimit="10" x1="167.124" y1="159.696" x2="353.101" y2="141.099"/>
	</g>
</g>
<g display="none">
	
		<rect x="395" y="400" display="inline" fill="#29ABE2" stroke="#2E3192" stroke-width="20" stroke-linecap="round" stroke-linejoin="round" stroke-miterlimit="10" width="224" height="220"/>
	
		<path display="inline" fill="#29ABE2" stroke="#2E3192" stroke-width="20" stroke-linecap="round" stroke-linejoin="round" stroke-miterlimit="10" d="
		M394.724,620L619,399.783L394.724,620z"/>
</g>
<path fill="none" stroke="#636592" stroke-width="35" stroke-linejoin="round" d="M72.5,587.5c133-111,145-422.349,2-367.349
	C12.238,244.097,35.5,380.5,125.5,337"/>
<path fill="none" stroke="#636592" stroke-width="35" stroke-linejoin="round" d="M221.318,289.5
	c172.182-105,183.6-219.095,104.182-231c-71-10.643-113,61-51.312,124"/>
<path fill="none" stroke="#636592" stroke-width="35" stroke-linejoin="round" d="M345.5,258.5
	c132,136,251.271,103.966,251.271,12.966C596.771,192.5,480.5,184.5,467.5,289.5"/>
<path fill="none" stroke="#636592" stroke-width="35" stroke-linejoin="round" d="M460.5,391.5c0,114,117,196,117,196"/>
</svg>
