<?xml version="1.0" encoding="utf-8"?>
<!-- Generator: Adobe Illustrator 24.3.0, SVG Export Plug-In . SVG Version: 6.00 Build 0)  -->
<svg version="1.1" xmlns="http://www.w3.org/2000/svg" xmlns:xlink="http://www.w3.org/1999/xlink" x="0px" y="0px"
	 viewBox="0 0 512 512" enable-background="new 0 0 512 512" xml:space="preserve">
<g id="Layer_1" display="none">
</g>
<g id="Layer_2" display="none">
	<path display="inline" fill="none" stroke="#000000" stroke-miterlimit="10" d="M211.25,22c2.666-3.5,9.795-3.15,12.25-0.25
		c2.22,2.623,11.699,37.989,19.5,46.5s9.324,1.852,24.218,8.944c14.893,7.092,40.676,38.956,50.406,52.992
		c13.043,18.815,11.376,30.564,8.072,30.445c-6.253-0.224-42.768-37.334-55.679-44.426c-12.911-7.092-21.422-12.057-31.351-5.674
		c-9.929,6.383-9.929,18.44-16.312,35.461S208.75,183.75,204.25,182.25c-6.18-2.06-3.018-31.056-3.75-53.75
		c-1.25-38.75,20.25-46.5,15.5-56c-1.589-3.178-5.5,9-24.142,19.592c-10.501,5.967-39.305,20.171-48.525,43.575
		s-0.705,38.09,14.917,40.083c12.852,1.639,17.75-8.749,18.005-18.41c0.265-10.054-21.255-7.673-16.588-12.673
		c5.649-6.053,23.448,2.723,23.681,13.382c0.319,14.618-10.842,24.906-25.014,24.618C143.175,182.359,128.872,165.23,131,147.5
		s8.646-29.292,24.333-45.108C171.127,86.468,204.75,79,209.833,59.75C213.566,45.614,207.303,27.181,211.25,22z"/>
	<path display="inline" fill="none" stroke="#000000" stroke-miterlimit="10" d="M216.083,162.63
		C224.5,201.5,229.164,247.5,229.414,273s-6.748,95-13.331,115c-6.583,20-9.917,64.5,0,75C226,473.5,255,484.5,285.5,454.5
		S346.163,356.375,348,317c1.83-39.223-3.5-115-31.861-162.436"/>
</g>
<g id="Layer_3">
</g>
<g id="Layer_5">
	<path stroke="#000000" stroke-width="28" stroke-linecap="round" stroke-miterlimit="10" d="M214.171,24.913
		c2.742-3.599,10.072-3.24,12.597-0.257c2.283,2.697,12.031,39.067,20.053,47.819c8.021,8.752,9.588,1.905,24.904,9.198
		c15.316,7.294,42.83,40.06,52.836,54.495c13.412,19.348,15.699,31.431,12.301,31.309c-6.431-0.23-46.981-36.393-60.259-43.686
		c-13.277-7.293-24.029-7.399-34.24-0.835c-10.21,6.565-11.211,13.962-17.774,31.466c-6.564,17.504-14.991,36.828-19.618,35.286
		c-6.355-2.119-2.104-30.937-2.856-54.275c-1.285-39.849,20.102-48.134,16.94-58.588C219.056,76.846,210.112,30.242,214.171,24.913z
		"/>
	<path fill="none" stroke="#000000" stroke-width="28" stroke-linecap="round" stroke-miterlimit="10" d="M216.102,59.681
		c0,0-1.257,18.707-16.49,26.677c-15.233,7.97-48.08,17.996-66.435,33.679c-9.818,8.388-33.774,32.136-23.791,51.418
		c9.983,19.282,27.694,17.225,34.135,15.94c12.881-2.571,22.59-27.006,17.219-33.767"/>
	<path fill="none" stroke="#000000" stroke-width="28" stroke-linecap="round" stroke-miterlimit="10" d="M219.141,169.533
		c8.656,39.972,13.452,87.277,13.709,113.5c0.257,26.223-4.197,78.841-13.709,118.262c-9.113,37.763-10.198,66.33,0,77.128
		c10.198,10.797,40.021,22.11,71.385-8.741c31.366-30.851,62.384-100.909,64.273-141.4c1.883-40.335-3.598-118.262-32.765-167.043"
		/>
</g>
<g id="Layer_4" display="none">
	<path display="inline" stroke="#000000" stroke-width="20" stroke-linecap="round" stroke-miterlimit="10" d="M342.333,215.667
		c4.502,3.443,15.37,65.481,12.456,115.009c-2.451,41.688-33.9,113.887-66.213,145.669c-32.312,31.782-63.035,20.128-73.541,9.005
		c-10.506-11.124-9.388-40.553,0-79.456c9.799-40.61,14.388-94.817,14.123-121.832c-0.265-27.015-4.683-49.907-2.826-53.061
		c6.104-10.365,11.798-23.752,21.333-46c6.356-14.832,8.542-31.715,10.999-32.667c2.024-0.784,29.189,25.727,39.334,34.002
		C310.666,196.667,331.815,207.624,342.333,215.667z"/>
</g>
</svg>
