<?xml version="1.0" encoding="utf-8"?>
<!-- Generator: Adobe Illustrator 22.0.0, SVG Export Plug-In . SVG Version: 6.00 Build 0)  -->
<svg version="1.1" id="Layer_1" xmlns:inkpad="http://taptrix.com/inkpad/svg_extensions"
	 xmlns="http://www.w3.org/2000/svg" xmlns:xlink="http://www.w3.org/1999/xlink" x="0px" y="0px" viewBox="0 0 512 512"
	 style="enable-background:new 0 0 512 512;" xml:space="preserve">
<g>
	<path d="M114.2,166.8c0,9.9,0,18.2,0,24.7s0,14.8,0,24.7h-19v-49.5H48.1v-19h47.1V98.4h19v49.5h47.1v19H114.2z"/>
	<path d="M278.6,224c0-7,0-12.9,0-17.5c0-4.6,0-10.5,0-17.5h-82.4v-19.2c3.8-6.7,8.2-14.3,13.4-22.9c5.2-8.5,10.9-17.7,17.1-27.5
		c6.2-9.8,12.9-20.2,20-31.1c7.1-10.9,14.4-22,22-33.4h30.6v115.2h24V189h-24v35H278.6z M217.8,168.8v1.4h60.9V74.5h-1.4
		c-4.3,6.3-8.9,13.2-13.7,20.6c-4.8,7.4-9.8,15.1-15,23.2s-10.3,16.4-15.5,24.9C228,151.7,222.9,160.2,217.8,168.8z"/>
	<path d="M370.1,65.4c10.2-9.7,23.1-14.5,38.8-14.5c15.2,0,27.9,4.6,38.1,13.7c10.3,9.1,15.4,20.4,15.4,33.8
		c0,8.8-2.5,17.4-7.4,25.9c-5,8.5-14.4,20.2-28.3,35.2l-40.7,43.7v1.9h79.2v19H355.8v-14.5l58.5-63.9c10.9-11.9,18.2-20.9,21.7-27
		c3.6-6.1,5.3-12.6,5.3-19.4c0-8.4-3.2-15.5-9.6-21.3c-6.4-5.7-14.2-8.6-23.5-8.6c-9.9,0-17.9,3-24,9.1c-6.1,6.1-9.1,14.1-9.1,24.1
		v0.1h-20.4v-0.1C354.8,87.5,359.9,75.1,370.1,65.4z"/>
</g>
<g>
	<path d="M158.4,400.7c-14.5,0-27,0-37.7,0s-21.3,0-32,0s-23.2,0-37.7,0v-19h107.3V400.7z"/>
	<path d="M219,450c-9.9-7.9-16.3-18.7-19-32.3h21.7c2.3,7.9,6.4,14.1,12.5,18.6c6.1,4.5,13.2,6.8,21.5,6.8
		c13.7,0,24.4-5.9,32.1-17.8c7.6-11.9,11.7-29.1,12.2-51.6H299h-0.5h-0.5c-4.1,8.2-10.2,14.6-18,19.2c-7.9,4.6-16.9,6.9-27,6.9
		c-16.1,0-29.4-5.3-39.8-16c-10.5-10.7-15.7-24.2-15.7-40.6c0-17,5.5-31,16.6-41.9c11.1-10.9,25.3-16.3,42.7-16.3
		c26.1,0,44.6,12.8,55.4,38.4c5.5,12.8,8.2,28.5,8.2,47.1c0,29.1-5.7,51.6-17,67.5c-11.3,15.9-27.3,23.9-48,23.9
		C241,461.9,228.9,457.9,219,450z M284.4,370.7c7.2-7.2,10.8-16.4,10.8-27.5c0-11.3-3.7-20.8-11-28.4c-7.3-7.6-16.4-11.4-27.2-11.4
		c-10.9,0-19.9,3.7-27.2,11.2c-7.3,7.5-11,16.7-11,27.8c0,11.6,3.5,21,10.6,28.2c7.1,7.2,16.2,10.8,27.4,10.8
		C268,381.5,277.2,377.9,284.4,370.7z"/>
	<path d="M394.7,458c0-14.1,0-26.6,0-37.7c0-11.1,0-22.8,0-35.2c0-12.4,0-24.1,0-35.2c0-11.1,0-23.6,0-37.7h-1.9
		c-8.7,6.3-15.8,11.4-21.5,15.6c-5.7,4.1-12.8,9.3-21.5,15.6v-22.3c9.1-6.5,16.6-11.9,22.5-16.2c5.9-4.3,13.4-9.7,22.5-16.2h21V458
		H394.7z"/>
</g>
</svg>
