<?xml version="1.0" encoding="utf-8"?>
<!-- Generator: Adobe Illustrator 21.0.0, SVG Export Plug-In . SVG Version: 6.00 Build 0)  -->
<svg version="1.1" id="Layer_1" xmlns:inkpad="http://taptrix.com/inkpad/svg_extensions"
	 xmlns="http://www.w3.org/2000/svg" xmlns:xlink="http://www.w3.org/1999/xlink" x="0px" y="0px" viewBox="0 0 512 512"
	 style="enable-background:new 0 0 512 512;" xml:space="preserve">
<g>
	<path d="M104.2,391c7.8,0,14.9-1.7,21.3-5c6.3-3.4,12.6-8.4,18.8-15.1c6.2-6.7,12.8-15.1,19.9-25.2c7.1-10.1,15.3-21.8,24.6-35.3
		l-33.6-84c-0.8-1.9-2-4.1-3.6-6.7c-1.7-2.6-4.2-3.9-7.6-3.9c-4.9,0-10.3,1.8-16.2,5.3c-6,3.6-10.8,5.3-14.6,5.3
		c-2.2,0-3.7-1-4.5-3.1c-0.8-2-1.5-4.4-2.2-7c10.4-9.3,21-17.6,31.6-24.9c10.6-7.3,19.7-10.9,27.2-10.9c8.2,0,14.3,2.3,18.2,7
		c3.9,4.7,7.4,10.7,10.4,18.2l28,70.6c24.3-34.3,45.4-58.9,63.3-73.6c17.9-14.7,34.5-22.1,49.8-22.1c6,0,11,1.5,15.1,4.5
		c-3,4.9-5.6,10.6-7.8,17.4c-2.2,6.7-3.9,14.9-5,24.6l-8.4,2.8c-1.9-1.9-4.2-3.6-7-5.3s-6.3-2.5-10.4-2.5c-7.1,0-13.4,1.1-19,3.4
		c-5.6,2.2-11.1,5.8-16.5,10.6c-5.4,4.9-11.1,11.1-17.1,18.8c-6,7.7-12.9,17.1-20.7,28.3l-8.4,11.8l36.4,89.6
		c2.6,6.4,5,10.8,7.3,13.4c2.2,2.6,5,3.9,8.4,3.9c4.5,0,9.4-1.7,14.8-5c5.4-3.4,9.8-5,13.2-5c2.6,0,4.4,0.8,5.3,2.2
		c0.9,1.5,1.8,4.1,2.5,7.8c-10.5,9.3-20.6,17.2-30.5,23.5c-9.9,6.3-18.4,9.5-25.5,9.5c-10.8,0-18.8-3.6-23.8-10.6s-9.8-16.4-14.3-28
		l-26.9-67.2c-11.2,19.4-22.2,35.8-33,49.3c-10.8,13.4-21.1,24.4-30.8,32.8c-9.7,8.4-19,14.5-27.7,18.2c-8.8,3.7-16.9,5.6-24.4,5.6
		c-3,0-6.1-0.5-9.2-1.4c-3.2-0.9-5.5-2-7-3.1c3-4.8,5.6-11,7.8-18.5c2.2-7.5,3.9-16,5-25.8l7.8-2.8c1.9,1.9,4.5,3.6,7.8,5.3
		C96.3,390.2,100,391,104.2,391z"/>
</g>
<g>
	<path d="M447.7,121.5c1-4.3,1.4-7.9,1.4-10.8c0-4.6-2.2-7-6.7-7c-2.4,0-5.4,1.3-8.9,4c-3.5,2.6-7.2,6.1-11,10.3
		c-3.8,4.2-7.6,9-11.4,14.3c-3.8,5.3-7.1,10.6-10,16.1c-1.4,2.7-2.8,5.7-4.2,9c-1.4,3.3-2.6,6.6-3.6,10.1c-1,3.4-1.8,6.8-2.4,10.2
		c-0.6,3.4-0.8,6.5-0.8,9.4c0,2.2,0.2,4.4,0.7,6.5c-6.1,0.6-12.4,1.8-19,3.6c-1.3-0.8-1.9-1.8-1.9-2.9c0-0.3,0.1-1,0.2-2
		c0.2-1,0.3-1.9,0.5-2.5c3.7-18.6,6.6-33.2,8.6-43.9c2.1-10.7,3.6-18.8,4.7-24.4c1-5.5,1.7-9.1,1.9-10.8c0.2-1.7,0.4-2.7,0.4-3
		c0-1.9-0.6-2.9-1.9-2.9c-0.6,0-1.6,0.3-2.9,0.8c-1.3,0.6-2.6,1.1-4,1.7c-1.4,0.6-2.7,1.1-4,1.7c-1.3,0.6-2.2,0.8-2.9,0.8
		c-0.8,0-1.5-0.5-2-1.4c-0.6-1-1-2.1-1.3-3.4c2.9-1.8,6.3-3.6,10.2-5.6c3.9-2,7.7-3.8,11.4-5.5c3.7-1.7,6.9-3.1,9.6-4.2
		c2.7-1.1,4.5-1.7,5.3-1.7c1.1,0,2.1,0.3,2.9,0.8c0.8,0.6,1.2,1.5,1.2,2.8c0,0.5,0,1.1-0.1,1.8c-0.1,0.7-0.2,1.5-0.4,2.3l-8.6,41.8
		h1c4.1-7,8.5-13.6,12.9-19.7c4.5-6.1,9-11.3,13.5-15.7c4.5-4.4,9.1-7.8,13.8-10.3c4.6-2.5,9.3-3.7,14.1-3.7c4.5,0,8,1.1,10.7,3.4
		c2.6,2.2,4,5.9,4,11c0,1.9-0.2,4.2-0.5,6.7c-0.3,2.6-0.7,5.1-1.2,7.7l-12.2,57.6c-0.5,2.2-0.7,3.8-0.7,4.6c0,2.1,1,3.1,2.9,3.1
		c1,0,2.1-0.3,3.4-0.8c1.3-0.6,2.5-1.2,3.7-1.9c1.2-0.7,2.3-1.4,3.2-1.9c1-0.6,1.8-0.8,2.4-0.8c1.6,0,2.7,1.6,3.4,4.8
		c-2.9,2.1-5.8,4-8.8,5.9c-3,1.8-6,3.5-8.9,4.9c-2.9,1.4-5.7,2.6-8.2,3.5c-2.5,0.9-4.6,1.3-6.2,1.3c-1.8,0-3.4-0.4-4.9-1.1
		c-1.5-0.7-2.3-2.4-2.3-5.2c0-0.5,0.1-1.2,0.2-2.3c0.2-1,0.3-2,0.5-2.8L447.7,121.5z"/>
</g>
</svg>
