<?xml version="1.0" encoding="utf-8"?>
<!-- Generator: Adobe Illustrator 21.0.0, SVG Export Plug-In . SVG Version: 6.00 Build 0)  -->
<svg version="1.1" id="Layer_1" xmlns:inkpad="http://taptrix.com/inkpad/svg_extensions"
	 xmlns="http://www.w3.org/2000/svg" xmlns:xlink="http://www.w3.org/1999/xlink" x="0px" y="0px" viewBox="0 0 512 512"
	 style="enable-background:new 0 0 512 512;" xml:space="preserve">
<g>
	<path d="M81,385.8c9,0,17.1-1.9,24.3-5.8c7.2-3.8,14.4-9.6,21.4-17.3c7-7.7,14.6-17.3,22.7-28.8c8.1-11.5,17.5-25,28.2-40.3
		l-38.4-96c-0.9-2.1-2.2-4.7-4.2-7.7c-1.9-3-4.8-4.5-8.6-4.5c-5.5,0-11.7,2-18.6,6.1c-6.8,4.1-12.4,6.1-16.6,6.1
		c-2.6,0-4.3-1.2-5.1-3.5c-0.9-2.3-1.7-5-2.6-8c11.9-10.7,24-20.2,36.2-28.5c12.2-8.3,22.5-12.5,31-12.5c9.4,0,16.3,2.7,20.8,8
		c4.5,5.3,8.4,12.3,11.8,20.8l32,80.6c27.7-39.2,51.8-67.3,72.3-84.2c20.5-16.9,39.5-25.3,57-25.3c6.8,0,12.6,1.7,17.3,5.1
		c-3.4,5.5-6.4,12.2-9,19.8c-2.6,7.7-4.5,17.1-5.8,28.2l-9.6,3.2c-2.1-2.1-4.8-4.2-8-6.1c-3.2-1.9-7.1-2.9-11.8-2.9
		c-8.1,0-15.4,1.3-21.8,3.8s-12.7,6.6-18.9,12.2c-6.2,5.5-12.7,12.7-19.5,21.4c-6.8,8.8-14.7,19.5-23.7,32.3l-9.6,13.4L266,378.1
		c3,7.3,5.8,12.4,8.3,15.4c2.6,3,5.8,4.5,9.6,4.5c5.1,0,10.8-1.9,17-5.8c6.2-3.8,11.2-5.8,15-5.8c3,0,5,0.9,6.1,2.6
		c1.1,1.7,2,4.7,2.9,9c-12,10.7-23.6,19.6-34.9,26.9c-11.3,7.2-21,10.9-29.1,10.9c-12.4,0-21.4-4.1-27.2-12.2
		c-5.8-8.1-11.2-18.8-16.3-32l-30.7-76.8c-12.8,22.2-25.4,41-37.8,56.3c-12.4,15.4-24.1,27.8-35.2,37.4C102.6,418.1,92,425,82,429.3
		c-10,4.3-19.3,6.4-27.8,6.4c-3.4,0-6.9-0.5-10.6-1.6c-3.6-1.1-6.3-2.2-8-3.5c3.4-5.5,6.4-12.6,9-21.1c2.6-8.5,4.5-18.3,5.8-29.4
		l9-3.2c2.1,2.1,5.1,4.2,9,6.1C72.1,384.8,76.3,385.8,81,385.8z"/>
</g>
<g>
	<path d="M460.7,87.5c1-4.3,1.4-7.9,1.4-10.8c0-4.6-2.2-7-6.7-7c-2.4,0-5.4,1.3-8.9,4c-3.5,2.6-7.2,6.1-11,10.3
		c-3.8,4.2-7.6,9-11.4,14.3c-3.8,5.3-7.1,10.6-10,16.1c-1.4,2.7-2.8,5.7-4.2,9c-1.4,3.3-2.6,6.6-3.6,10.1c-1,3.4-1.8,6.8-2.4,10.2
		c-0.6,3.4-0.8,6.5-0.8,9.4c0,2.2,0.2,4.4,0.7,6.5c-6.1,0.6-12.4,1.8-19,3.6c-1.3-0.8-1.9-1.8-1.9-2.9c0-0.3,0.1-1,0.2-2
		c0.2-1,0.3-1.9,0.5-2.5c3.7-18.6,6.6-33.2,8.6-43.9c2.1-10.7,3.6-18.8,4.7-24.4c1-5.5,1.7-9.1,1.9-10.8c0.2-1.7,0.4-2.7,0.4-3
		c0-1.9-0.6-2.9-1.9-2.9c-0.6,0-1.6,0.3-2.9,0.8c-1.3,0.6-2.6,1.1-4,1.7c-1.4,0.6-2.7,1.1-4,1.7c-1.3,0.6-2.2,0.8-2.9,0.8
		c-0.8,0-1.5-0.5-2-1.4c-0.6-1-1-2.1-1.3-3.4c2.9-1.8,6.3-3.6,10.2-5.6c3.9-2,7.7-3.8,11.4-5.5c3.7-1.7,6.9-3.1,9.6-4.2
		c2.7-1.1,4.5-1.7,5.3-1.7c1.1,0,2.1,0.3,2.9,0.8c0.8,0.6,1.2,1.5,1.2,2.8c0,0.5,0,1.1-0.1,1.8c-0.1,0.7-0.2,1.5-0.4,2.3l-8.6,41.8
		h1c4.1-7,8.5-13.6,12.9-19.7c4.5-6.1,9-11.3,13.5-15.7c4.5-4.4,9.1-7.8,13.8-10.3c4.6-2.5,9.3-3.7,14.1-3.7c4.5,0,8,1.1,10.7,3.4
		c2.6,2.2,4,5.9,4,11c0,1.9-0.2,4.2-0.5,6.7c-0.3,2.6-0.7,5.1-1.2,7.7l-12.2,57.6c-0.5,2.2-0.7,3.8-0.7,4.6c0,2.1,1,3.1,2.9,3.1
		c1,0,2.1-0.3,3.4-0.8c1.3-0.6,2.5-1.2,3.7-1.9c1.2-0.7,2.3-1.4,3.2-1.9c1-0.6,1.8-0.8,2.4-0.8c1.6,0,2.7,1.6,3.4,4.8
		c-2.9,2.1-5.8,4-8.8,5.9c-3,1.8-6,3.5-8.9,4.9c-2.9,1.4-5.7,2.6-8.2,3.5c-2.5,0.9-4.6,1.3-6.2,1.3c-1.8,0-3.4-0.4-4.9-1.1
		c-1.5-0.7-2.3-2.4-2.3-5.2c0-0.5,0.1-1.2,0.2-2.3c0.2-1,0.3-2,0.5-2.8L460.7,87.5z"/>
</g>
</svg>
