<?xml version="1.0" encoding="utf-8"?>
<!-- Generator: Adobe Illustrator 24.3.0, SVG Export Plug-In . SVG Version: 6.00 Build 0)  -->
<svg version="1.1" id="Layer_1" xmlns="http://www.w3.org/2000/svg" xmlns:xlink="http://www.w3.org/1999/xlink" x="0px" y="0px"
	 viewBox="0 0 128 128" style="enable-background:new 0 0 128 128;" xml:space="preserve">
<style type="text/css">
	.st0{display:none;fill:#808080;}
	.st1{fill:url(#SVGID_1_);}
</style>
<rect class="st0" width="128" height="128"/>
<g id="layer1">
	
		<linearGradient id="SVGID_1_" gradientUnits="userSpaceOnUse" x1="-84.0695" y1="473.7816" x2="-84.0695" y2="533.4254" gradientTransform="matrix(1.8137 1.2939 1.1585 -1.6239 -363.8784 993.4436)">
		<stop  offset="0" style="stop-color:#999999"/>
		<stop  offset="1" style="stop-color:#B3B3B3"/>
	</linearGradient>
	<path class="st1" d="M44.6,122.6c-0.8,0-1.6,0-2.4-0.1c-8.5-0.8-16-6.2-19.6-14c-4.3-9.4-2.4-20.7,5-31.1l42.1-59
		C76.1,9.4,84.4,4.7,92.5,5.5c5.9,0.6,11,4.2,13.5,9.6c3.4,7.4,1.6,16.8-4.7,25.7L72.6,81c-0.4,0.5-0.9,0.9-1.4,1.2
		c-4.4,2.3-7.8,4.3-10.3,5.7c-4.9,2.9-7.5,4.4-10.3,2.4c-2.8-2-2.2-5-1.1-10.6c0.6-2.8,1.3-6.6,2.1-11.6c0.1-0.6,0.3-1.2,0.7-1.7
		l7.4-10.4c1.3-1.8,3.8-2.2,5.6-0.9c1.8,1.3,2.2,3.8,0.9,5.6l-6.9,9.6c-0.7,4.3-1.3,7.7-1.9,10.3c2.3-1.4,5.3-3.1,9.1-5.1l28.1-39.4
		c4.7-6.6,6.1-13,4-17.8c-1.3-2.8-3.8-4.7-6.9-5c-5.2-0.5-10.8,3-15.5,9.5l-42.1,59c-5.7,8-7.2,16.4-4.2,23.1
		c2.4,5.3,7.3,8.8,13.1,9.3c7.3,0.7,14.8-3.5,20.5-11.5l23-32.3c1.3-1.8,3.8-2.2,5.6-0.9c1.8,1.3,2.2,3.8,0.9,5.6l-23,32.3
		C63.1,117.2,54,122.6,44.6,122.6z"/>
</g>
</svg>
