<?xml version="1.0" encoding="utf-8"?>
<!-- Generator: Adobe Illustrator 24.3.0, SVG Export Plug-In . SVG Version: 6.00 Build 0)  -->
<svg version="1.1" xmlns="http://www.w3.org/2000/svg" xmlns:xlink="http://www.w3.org/1999/xlink" x="0px" y="0px"
	 viewBox="0 0 512 512" enable-background="new 0 0 512 512" xml:space="preserve">
<g id="Layer_2">
</g>
<g id="Layer_1">
	<g>
		
			<radialGradient id="SVGID_1_" cx="266.46" cy="764.5049" r="150.4547" gradientTransform="matrix(1 0 0 1 0 -566)" gradientUnits="userSpaceOnUse">
			<stop  offset="0" style="stop-color:#E0B8AD"/>
			<stop  offset="0.5" style="stop-color:#CF9082"/>
			<stop  offset="1" style="stop-color:#BD7872"/>
		</radialGradient>
		<path fill="url(#SVGID_1_)" d="M227.741,374.686l-8.911-10.799c-19.92-24.14-41.596-67.366-55.222-110.124
			c-22.277-69.903-17.88-116.731-10.268-143.706c11.306-40.065,37.26-67.325,77.141-81.021
			c41.932-14.378,83.919-5.414,115.206,24.589c35.418,33.966,48.867,87.715,34.263,136.934l-3.983,13.422l-26.843-7.965
			l3.982-13.421c11.656-39.28,1.137-81.97-26.8-108.76c-23.458-22.497-55.073-29.171-86.737-18.314
			c-31.104,10.682-50.497,31.01-59.282,62.142c-9.287,32.911-5.736,78.227,9.999,127.6c10.348,32.471,29.865,76.234,50.141,100.805
			l8.911,10.798L227.741,374.686z"/>
	</g>
	<g>
		
			<radialGradient id="SVGID_2_" cx="344.3142" cy="910.5436" r="144.5741" gradientTransform="matrix(1 0 0 1 0 -566)" gradientUnits="userSpaceOnUse">
			<stop  offset="0" style="stop-color:#E0B8AD"/>
			<stop  offset="0.5" style="stop-color:#CF9082"/>
			<stop  offset="1" style="stop-color:#BD7872"/>
		</radialGradient>
		<path fill="url(#SVGID_2_)" d="M383.826,489.343c-7.613,0-15.35-0.842-23.14-2.537c-28.139-6.122-55.822-23.569-80.058-50.456
			l-9.373-10.398l20.798-18.747l9.374,10.399c20.286,22.505,42.836,36.975,65.212,41.843c19.261,4.192,37.973,1.319,54.109-8.304
			c16.412-9.787,28.93-25.988,35.248-45.618c6.984-21.699,6.1-46.026-2.558-70.354c-11.393-31.967-45.42-63.407-91.02-84.094
			c-47.338-21.476-99.471-28.581-143.032-19.495l-13.705,2.859l-5.717-27.41l13.705-2.859
			c49.254-10.274,107.688-2.472,160.318,21.406c53.156,24.115,91.729,60.637,105.828,100.199c10.74,30.18,11.72,60.721,2.834,88.326
			c-8.405,26.116-25.297,47.812-47.561,61.089C419.356,484.574,401.943,489.343,383.826,489.343z"/>
	</g>
	<g>
		
			<radialGradient id="SVGID_3_" cx="189.1492" cy="916.3289" r="144.4161" gradientTransform="matrix(1 0 0 1 0 -566)" gradientUnits="userSpaceOnUse">
			<stop  offset="0" style="stop-color:#E0B8AD"/>
			<stop  offset="0.5" style="stop-color:#CF9082"/>
			<stop  offset="1" style="stop-color:#BD7872"/>
		</radialGradient>
		<path fill="url(#SVGID_3_)" d="M127.32,470.215c-29.822,0.001-56.677-10.196-78.953-30.229
			c-19.381-17.396-27.904-46.112-23.374-78.778c5.603-40.401,33.573-94.352,95.272-124.602l12.57-6.163l12.327,25.141l-12.571,6.164
			c-51.845,25.42-75.249,70.032-79.864,103.308c-3.23,23.297,2,43.017,14.352,54.103c29.862,26.854,64.979,25.329,89.186,19.323
			c32.134-7.976,66.389-28.836,96.455-58.739c30.838-30.67,55.934-69.661,70.665-109.79l4.825-13.142l26.284,9.65l-4.824,13.143
			c-33.23,90.517-109.988,167.025-186.661,186.054C150.736,468.702,138.807,470.215,127.32,470.215z"/>
	</g>
</g>
</svg>
