<?xml version="1.0" encoding="utf-8"?>
<!-- Generator: Adobe Illustrator 24.3.0, SVG Export Plug-In . SVG Version: 6.00 Build 0)  -->
<svg version="1.1" xmlns="http://www.w3.org/2000/svg" xmlns:xlink="http://www.w3.org/1999/xlink" x="0px" y="0px"
	 viewBox="0 0 640 640" style="enable-background:new 0 0 640 640;" xml:space="preserve">
<style type="text/css">
	.st0{fill:none;stroke:#DEB92A;stroke-width:22;stroke-linecap:round;stroke-miterlimit:10;}
	.st1{fill:#DEB92A;}
	.st2{display:none;}
	.st3{display:inline;fill:none;stroke:#219EDB;stroke-width:28;stroke-miterlimit:10;}
</style>
<g id="Layer_2">
</g>
<g id="Layer_1">
	<g>
		<g>
			<g>
				<g>
					<line class="st0" x1="216" y1="432" x2="579.1" y2="432"/>
					<g>
						<polygon class="st1" points="506.2,522 491.2,505.9 570.7,432 491.2,358.2 506.2,342 603,432 						"/>
					</g>
				</g>
			</g>
			<g>
				<g>
					<line class="st0" x1="216" y1="432" x2="216" y2="59.9"/>
					<g>
						<polygon class="st1" points="306,132.8 289.9,147.8 216,68.3 142.2,147.8 126,132.8 216,36 						"/>
					</g>
				</g>
			</g>
			<g>
				<g>
					<line class="st0" x1="53.3" y1="586.6" x2="216" y2="432"/>
					<g>
						<polygon class="st1" points="168.1,601.6 167.9,579.6 59.4,580.8 66.2,472.5 44.2,471.1 36,603 						"/>
					</g>
				</g>
			</g>
		</g>
		<g class="st2">
			<path class="st3" d="M389.5,257c7-45.9-14-91.8-90.8-85.2c-70.5,6-132.7,118-34.9,235.9"/>
			<path class="st3" d="M361.6,473.2c55.9,26.2,117.3-46.4,104.8-98.3c-23-95.1-188.6-65.5-188.6-65.5"/>
			<path class="st3" d="M166,348.7c-53.7,29.3-63.2,133,17.1,159.4c112.6,37,171.6-146.3,171.6-146.3"/>
		</g>
	</g>
</g>
</svg>
