<?xml version="1.0" encoding="utf-8"?>
<!-- Generator: Adobe Illustrator 24.3.0, SVG Export Plug-In . SVG Version: 6.00 Build 0)  -->
<svg version="1.1" xmlns="http://www.w3.org/2000/svg" xmlns:xlink="http://www.w3.org/1999/xlink" x="0px" y="0px"
	 viewBox="0 0 640 640" style="enable-background:new 0 0 640 640;" xml:space="preserve">
<style type="text/css">
	.st0{fill:none;stroke:#C29B00;stroke-width:16;stroke-linecap:round;stroke-miterlimit:10;}
	.st1{fill:#C29B00;}
	.st2{fill:none;stroke:#219EDB;stroke-width:28;stroke-miterlimit:10;}
</style>
<g id="Layer_2">
</g>
<g id="Layer_1">
	<g>
		<g>
			<g>
				<g>
					<line class="st0" x1="216" y1="432" x2="585.6" y2="432"/>
					<g>
						<polygon class="st1" points="532.6,497.4 521.7,485.7 579.5,432 521.7,378.3 532.6,366.6 603,432 						"/>
					</g>
				</g>
			</g>
			<g>
				<g>
					<line class="st0" x1="216" y1="432" x2="216" y2="53.4"/>
					<g>
						<polygon class="st1" points="281.4,106.4 269.7,117.3 216,59.5 162.3,117.3 150.6,106.4 216,36 						"/>
					</g>
				</g>
			</g>
			<g>
				<g>
					<line class="st0" x1="48.6" y1="591" x2="216" y2="432"/>
					<g>
						<polygon class="st1" points="132.1,602 131.9,586 53,586.8 57.9,508.1 42,507.1 36,603 						"/>
					</g>
				</g>
			</g>
		</g>
		<g>
			<path class="st2" d="M389.5,257c7-45.9-14-91.8-90.8-85.2c-70.5,6-132.7,118-34.9,235.9"/>
			<path class="st2" d="M361.6,473.2c55.9,26.2,117.3-46.4,104.8-98.3c-23-95.1-188.6-65.5-188.6-65.5"/>
			<path class="st2" d="M166,348.7c-53.7,29.3-63.2,133,17.1,159.4c112.6,37,171.6-146.3,171.6-146.3"/>
		</g>
	</g>
</g>
</svg>
