<?xml version="1.0" encoding="UTF-8" standalone="no"?>
<!-- Generator: Adobe Illustrator 16.0.4, SVG Export Plug-In . SVG Version: 6.00 Build 0)  -->

<svg
   version="1.1"
   id="Layer_1"
   x="0px"
   y="0px"
   width="640px"
   height="640px"
   viewBox="0 0 640 640"
   enable-background="new 0 0 640 640"
   xml:space="preserve"
   sodipodi:docname="canonical.svg"
   inkscape:version="1.4.2 (ebf0e940, 2025-05-08)"
   xmlns:inkscape="http://www.inkscape.org/namespaces/inkscape"
   xmlns:sodipodi="http://sodipodi.sourceforge.net/DTD/sodipodi-0.dtd"
   xmlns="http://www.w3.org/2000/svg"
   xmlns:svg="http://www.w3.org/2000/svg"><defs
   id="defs3" /><sodipodi:namedview
   id="namedview3"
   pagecolor="#ffffff"
   bordercolor="#000000"
   borderopacity="0.25"
   inkscape:showpageshadow="2"
   inkscape:pageopacity="0.0"
   inkscape:pagecheckerboard="0"
   inkscape:deskcolor="#d1d1d1"
   inkscape:zoom="0.65067369"
   inkscape:cx="629.34771"
   inkscape:cy="390.36464"
   inkscape:window-width="1696"
   inkscape:window-height="929"
   inkscape:window-x="0"
   inkscape:window-y="38"
   inkscape:window-maximized="0"
   inkscape:current-layer="Layer_1" />
<polyline
   fill="#F2C6C9"
   points="385,220 465,331 174,376 "
   id="polyline1" />
<polygon
   fill="#BF6F74"
   points="382,452 174,376 465,331 "
   id="polygon1" />
<polygon
   fill="#D69B9E"
   points="250,185 178.977,372.32 385,220 "
   id="polygon2" />
<path
   fill="none"
   stroke="#c1272d"
   stroke-width="20"
   stroke-miterlimit="10"
   d="M 595.25,319.5 C 595.25,472.34764 473.24466,595 319.75,595 166.25534,595 44.25,472.99466 44.25,319.5 44.25,166.00534 166.25534,44 319.75,44 c 153.49466,0 275.5,122.00534 275.5,275.5 z M 320,112 c -114.323,0 -207,92.677 -207,207 0,114.323 92.677,207 207,207 114.323,0 207,-92.677 207,-207 0,-114.323 -92.677,-207 -207,-207 z"
   id="path2"
   style="fill:#e5a1a6;fill-opacity:1;stroke-width:16;stroke-dasharray:none"
   sodipodi:nodetypes="ssssssssss" />


<polyline
   fill="none"
   stroke="#C1272D"
   stroke-width="20"
   stroke-linejoin="round"
   stroke-miterlimit="10"
   points="385,220 250,185   174,376 382,452 465,331 385,220 174,376 465,331 "
   id="polyline3" />
</svg>
