<?xml version="1.0" encoding="utf-8"?>
<!-- Generator: Adobe Illustrator 24.3.0, SVG Export Plug-In . SVG Version: 6.00 Build 0)  -->
<svg version="1.1" id="Layer_1" xmlns="http://www.w3.org/2000/svg" xmlns:xlink="http://www.w3.org/1999/xlink" x="0px" y="0px"
	 viewBox="0 0 640 640" style="enable-background:new 0 0 640 640;" xml:space="preserve">
<style type="text/css">
	.st0{fill:#534741;}
</style>
<g>
	<path class="st0" d="M494.1,405.8c0,15.7-4.7,32.8-14,51.5c-9.3,18.6-21.1,34.5-35.5,47.4c-28.6,26.5-70.3,39.7-124.9,39.7
		c-58.9,0-103.6-16.9-134.2-50.7c-25.9-29.2-38.9-59.9-38.9-92l-0.8-306.5l41.3-0.4l1.6,294.7c0,32.2,10.7,58.8,32,80.1
		c21.3,21.2,54.7,31.8,100.1,31.8c47.3,0,80.9-10.1,100.9-30.2c20-20.1,30-47.1,30-80.9l0.4-295.5l41.3,0.4L494.1,405.8z
		 M320.2,280.1c11.3,0,21.1,4.1,29.4,12.4c8.2,8.2,12.4,18,12.4,29.4c0,11.6-4.1,21.4-12.4,29.4c-8.2,8-18.4,12-30.6,12
		c-11.1,0-20.5-4-28.4-12c-7.8-8-11.8-17.6-11.8-29c0-12.2,3.9-22.2,11.8-30.2C298.4,284.1,308.3,280.1,320.2,280.1z"/>
</g>
</svg>
