<?xml version="1.0" encoding="UTF-8" standalone="no"?>
<!-- Generator: Adobe Illustrator 16.0.4, SVG Export Plug-In . SVG Version: 6.00 Build 0)  -->

<svg
   version="1.1"
   id="Layer_1"
   x="0px"
   y="0px"
   width="640px"
   height="640px"
   viewBox="0 0 640 640"
   enable-background="new 0 0 640 640"
   xml:space="preserve"
   sodipodi:docname="fill.svg"
   inkscape:version="1.3.2 (091e20e, 2023-11-25)"
   xmlns:inkscape="http://www.inkscape.org/namespaces/inkscape"
   xmlns:sodipodi="http://sodipodi.sourceforge.net/DTD/sodipodi-0.dtd"
   xmlns="http://www.w3.org/2000/svg"
   xmlns:svg="http://www.w3.org/2000/svg"><defs
   id="defs4" /><sodipodi:namedview
   id="namedview4"
   pagecolor="#ffffff"
   bordercolor="#000000"
   borderopacity="0.25"
   inkscape:showpageshadow="2"
   inkscape:pageopacity="0.0"
   inkscape:pagecheckerboard="0"
   inkscape:deskcolor="#d1d1d1"
   inkscape:zoom="0.36875"
   inkscape:cx="318.64407"
   inkscape:cy="320"
   inkscape:window-width="1312"
   inkscape:window-height="449"
   inkscape:window-x="0"
   inkscape:window-y="38"
   inkscape:window-maximized="0"
   inkscape:current-layer="Layer_1" />
<linearGradient
   id="SVGID_1_"
   gradientUnits="userSpaceOnUse"
   x1="307.813"
   y1="166.561"
   x2="420.1867"
   y2="585.9455">
	<stop
   offset="0"
   style="stop-color:#D6B984"
   id="stop1" />
	<stop
   offset="1"
   style="stop-color:#B59757"
   id="stop2" />
</linearGradient>


<g
   id="g4"
   transform="translate(0,-60.986)"><path
     fill="url(#SVGID_1_)"
     d="m 125.56,215.396 c 0,0 125.44,-7.396 192.94,-7.396 73.5,0 197.383,6.076 197.383,6.076 0,0 -64.883,55.924 -109.765,166.91 C 385.123,432.905 364,601 364,601 h -88 c 0,0 -9,-147 -44.317,-225.697 C 191.069,284.802 125.56,215.396 125.56,215.396 Z"
     id="path2"
     style="fill:url(#SVGID_1_)" /><path
     fill="none"
     stroke="#006837"
     stroke-width="22"
     stroke-linecap="round"
     stroke-miterlimit="10"
     d="M 43,160.972 C 43,160.972 260,236 276,601"
     id="path3" /><path
     fill="none"
     stroke="#006837"
     stroke-width="22"
     stroke-linecap="round"
     stroke-miterlimit="10"
     d="M 597,160.972 C 597,160.972 380,236 364,601"
     id="path4" /></g>
</svg>
