<?xml version="1.0" encoding="utf-8"?>
<!-- Generator: Adobe Illustrator 24.3.0, SVG Export Plug-In . SVG Version: 6.00 Build 0)  -->
<svg version="1.1" id="Layer_1" xmlns="http://www.w3.org/2000/svg" xmlns:xlink="http://www.w3.org/1999/xlink" x="0px" y="0px"
	 viewBox="0 0 640 640" enable-background="new 0 0 640 640" xml:space="preserve">
<g id="Layer_1_1_" display="none">
	<g display="inline">
		
			<rect x="21" y="18" fill="#E6E6F2" stroke="#636592" stroke-width="20" stroke-linecap="round" stroke-linejoin="round" stroke-miterlimit="10" width="449" height="449"/>
		
			<polyline fill="none" stroke="#636592" stroke-width="20" stroke-linecap="round" stroke-linejoin="round" stroke-miterlimit="10" points="
			21,18 167.124,159.696 210.519,338.588 21,467 		"/>
		
			<polyline fill="none" stroke="#636592" stroke-width="20" stroke-linecap="round" stroke-linejoin="round" stroke-miterlimit="10" points="
			470,303.164 210.519,338.588 21,219.032 167.124,159.696 257.456,18 353.101,141.099 210.519,338.588 284.023,467 470,303.164 
			353.101,141.099 470,18 		"/>
		
			<line fill="none" stroke="#636592" stroke-width="20" stroke-linecap="round" stroke-linejoin="round" stroke-miterlimit="10" x1="167.124" y1="159.696" x2="353.101" y2="141.099"/>
	</g>
</g>
<g display="none">
	
		<rect x="395" y="400" display="inline" fill="#29ABE2" stroke="#2E3192" stroke-width="20" stroke-linecap="round" stroke-linejoin="round" stroke-miterlimit="10" width="224" height="220"/>
	
		<path display="inline" fill="#29ABE2" stroke="#2E3192" stroke-width="20" stroke-linecap="round" stroke-linejoin="round" stroke-miterlimit="10" d="
		M394.724,620L619,399.783L394.724,620z"/>
</g>
<path fill="none" stroke="#636592" stroke-width="25" stroke-linejoin="round" d="M72.5,567.5c128.37-107,124.219-412.977,2-358
	C7,239.863,36.5,366,131.5,320"/>
<path fill="none" stroke="#636592" stroke-width="25" stroke-linejoin="round" d="M200.5,285.5c169-86,204.418-226.452,125-238.357
	c-71-10.643-108,66.357-42.312,124.357"/>
<path fill="none" stroke="#636592" stroke-width="25" stroke-linejoin="round" d="M338.5,230.5c132,136,256.161,112,255,33
	c-1.185-80.595-110-85-120,22"/>
<path fill="none" stroke="#636592" stroke-width="25" stroke-linejoin="round" d="M472.5,356.5c0,114,105,211,105,211"/>
</svg>
