<?xml version="1.0" encoding="utf-8"?>
<!-- Generator: Adobe Illustrator 24.3.0, SVG Export Plug-In . SVG Version: 6.00 Build 0)  -->
<svg version="1.1" id="Layer_1" xmlns="http://www.w3.org/2000/svg" xmlns:xlink="http://www.w3.org/1999/xlink" x="0px" y="0px"
	 viewBox="0 0 640 640" style="enable-background:new 0 0 640 640;" xml:space="preserve">
<style type="text/css">
	.st0{display:none;fill:#006622;enable-background:new    ;}
	.st1{font-family:'MesloLGMForPowerline-Regular';}
	.st2{font-size:360px;}
	.st3{fill:url(#SVGID_1_);stroke:#603813;stroke-width:18;stroke-miterlimit:10;}
	.st4{fill:none;stroke:#603813;stroke-width:24;stroke-linecap:round;stroke-miterlimit:10;}
	.st5{fill:none;stroke:#603813;stroke-width:24;stroke-linecap:round;stroke-linejoin:round;stroke-miterlimit:10;}
	.st6{enable-background:new    ;}
	.st7{fill:#006622;}
</style>
<text transform="matrix(1 0 0 1 315.9017 626.8217)" class="st0 st1 st2">0︀</text>
<g>
	<g>
		<linearGradient id="SVGID_1_" gradientUnits="userSpaceOnUse" x1="133.3579" y1="223.5681" x2="244.7083" y2="416.4326">
			<stop  offset="0" style="stop-color:#D1BFAF"/>
			<stop  offset="1" style="stop-color:#E3D6CA"/>
		</linearGradient>
		<path class="st3" d="M82.9,378.5C51.5,378.5,26,353,26,321.7v-3.3c0-31.3,25.5-56.8,56.8-56.8h212.3c31.3,0,56.8,25.5,56.8,56.8
			v3.3c0,31.3-25.5,56.8-56.8,56.8L82.9,378.5L82.9,378.5z"/>
	</g>
	<g>
		<g>
			<line class="st4" x1="189" y1="205.5" x2="189" y2="29.5"/>
			<polyline class="st5" points="117,133.5 189,205.5 261,133.5 			"/>
		</g>
		<g>
			<line class="st4" x1="189" y1="434.5" x2="189" y2="610.5"/>
			<polyline class="st5" points="117,506.5 189,434.5 261,506.5 			"/>
		</g>
	</g>
</g>
<g class="st6">
	<path class="st7" d="M519.5,158.9c33.2,0,58.4,13.6,75.4,40.7c17,27.1,25.6,67.3,25.6,120.4c0,53.1-8.5,93.3-25.6,120.4
		c-17,27.1-42.2,40.7-75.4,40.7c-33.3,0-58.4-13.6-75.3-40.7c-17-27.1-25.5-67.3-25.5-120.4c0-53.1,8.5-93.3,25.5-120.4
		C461.2,172.5,486.3,158.9,519.5,158.9z M519.5,192.3c-19.6,0-34.3,10.5-43.9,31.5c-9.7,21-14.5,53.1-14.5,96.2
		c0,19.6,1.3,38,4,55.1l97.2-155C551.7,201.5,537.5,192.3,519.5,192.3z M519.5,447.7c19.8,0,34.5-10.5,44.1-31.5
		c9.7-21,14.5-53.1,14.5-96.2c0-23-1.4-43.7-4.2-62.2l-99.3,155.5C485.1,436.2,500.1,447.7,519.5,447.7z"/>
</g>
</svg>
