<?xml version="1.0" encoding="utf-8"?>
<!-- Generator: Adobe Illustrator 24.3.0, SVG Export Plug-In . SVG Version: 6.00 Build 0)  -->
<svg version="1.1" id="Layer_1" xmlns="http://www.w3.org/2000/svg" xmlns:xlink="http://www.w3.org/1999/xlink" x="0px" y="0px"
	 viewBox="0 0 640 640" enable-background="new 0 0 640 640" xml:space="preserve">
<g>
	<linearGradient id="SVGID_1_" gradientUnits="userSpaceOnUse" x1="77" y1="320" x2="563" y2="320">
		<stop  offset="0" style="stop-color:#56B8E2"/>
		<stop  offset="1" style="stop-color:#8AC7E2"/>
	</linearGradient>
	<path fill="url(#SVGID_1_)" d="M133.83,378.5c-31.336,0-56.83-25.493-56.83-56.829v-3.341c0-31.336,25.494-56.83,56.83-56.83
		h372.341c31.336,0,56.829,25.494,56.829,56.83v3.341c0,31.336-25.493,56.829-56.829,56.829H133.83z"/>
	<path fill="#1B1464" d="M506.171,270.5c26.373,0,47.829,21.456,47.829,47.829v3.341c0,26.373-21.456,47.829-47.829,47.829H133.829
		C107.456,369.5,86,348.044,86,321.671v-3.341c0-26.373,21.456-47.829,47.829-47.829H506.171 M506.171,252.5H133.829
		C97.473,252.5,68,281.973,68,318.329v3.341c0,36.357,29.473,65.829,65.829,65.829h372.341c36.356,0,65.829-29.473,65.829-65.829
		v-3.341C572,281.973,542.527,252.5,506.171,252.5L506.171,252.5z"/>
</g>
<g>
	<g>
		
			<line fill="#FFFFFF" stroke="#603813" stroke-width="24" stroke-linecap="round" stroke-miterlimit="10" x1="320" y1="205.5" x2="320" y2="29.5"/>
		
			<polyline fill="none" stroke="#603813" stroke-width="24" stroke-linecap="round" stroke-linejoin="round" stroke-miterlimit="10" points="
			248,133.5 320,205.5 392,133.5 		"/>
	</g>
	<g>
		
			<line fill="#FFFFFF" stroke="#603813" stroke-width="24" stroke-linecap="round" stroke-miterlimit="10" x1="320" y1="434.5" x2="320" y2="610.5"/>
		
			<polyline fill="none" stroke="#603813" stroke-width="24" stroke-linecap="round" stroke-linejoin="round" stroke-miterlimit="10" points="
			248,506.5 320,434.5 392,506.5 		"/>
	</g>
</g>
</svg>
