<?xml version="1.0" encoding="utf-8"?>
<!-- Generator: Adobe Illustrator 24.3.0, SVG Export Plug-In . SVG Version: 6.00 Build 0)  -->
<svg version="1.1" id="Layer_1" xmlns="http://www.w3.org/2000/svg" xmlns:xlink="http://www.w3.org/1999/xlink" x="0px" y="0px"
	 viewBox="0 0 640 640" enable-background="new 0 0 640 640" xml:space="preserve">
<text transform="matrix(1 0 0 1 315.9017 626.8217)" display="none" fill="#006622" enable-background="new    " font-family="'MesloLGMForPowerline-Regular'" font-size="360px">0︀</text>
<g>
	<g>
		<linearGradient id="SVGID_1_" gradientUnits="userSpaceOnUse" x1="26.033" y1="320" x2="352.033" y2="320">
			<stop  offset="0" style="stop-color:#D1BFAF"/>
			<stop  offset="1" style="stop-color:#E3D6CA"/>
		</linearGradient>
		<path fill="url(#SVGID_1_)" stroke="#603813" stroke-width="18" stroke-miterlimit="10" d="M82.863,378.5
			c-31.336,0-56.83-25.493-56.83-56.829v-3.341c0-31.336,25.494-56.83,56.83-56.83h212.341c31.336,0,56.829,25.494,56.829,56.83
			v3.341c0,31.336-25.493,56.829-56.829,56.829L82.863,378.5L82.863,378.5z"/>
	</g>
	<g>
		<g>
			
				<line fill="none" stroke="#603813" stroke-width="24" stroke-linecap="round" stroke-miterlimit="10" x1="189.033" y1="205.5" x2="189.033" y2="29.5"/>
			
				<polyline fill="none" stroke="#603813" stroke-width="24" stroke-linecap="round" stroke-linejoin="round" stroke-miterlimit="10" points="
				117.033,133.5 189.033,205.5 261.033,133.5 			"/>
		</g>
		<g>
			
				<line fill="none" stroke="#603813" stroke-width="24" stroke-linecap="round" stroke-miterlimit="10" x1="189.033" y1="434.5" x2="189.033" y2="610.5"/>
			
				<polyline fill="none" stroke="#603813" stroke-width="24" stroke-linecap="round" stroke-linejoin="round" stroke-miterlimit="10" points="
				117.033,506.5 189.033,434.5 261.033,506.5 			"/>
		</g>
	</g>
</g>
<g enable-background="new    ">
	<path fill="#006622" d="M500.534,158.899c33.249,0,58.394,13.565,75.438,40.692c17.041,27.129,25.563,67.267,25.563,120.409
		c0,53.146-8.524,93.28-25.563,120.409c-17.043,27.129-42.189,40.692-75.438,40.692c-33.252,0-58.362-13.564-75.334-40.692
		C408.225,413.28,399.742,373.146,399.742,320c0-53.142,8.483-93.28,25.459-120.409
		C442.171,172.463,467.282,158.899,500.534,158.899z M500.534,192.287c-19.616,0-34.259,10.506-43.927,31.511
		c-9.671,21.008-14.504,53.077-14.504,96.202c0,19.616,1.32,37.98,3.965,55.091l97.245-155.049
		C532.738,201.541,518.481,192.287,500.534,192.287z M500.534,447.713c19.753,0,34.464-10.503,44.136-31.511
		c9.668-21.004,14.504-53.073,14.504-96.202c0-22.955-1.393-43.683-4.174-62.187L455.668,413.28
		C466.102,436.235,481.054,447.713,500.534,447.713z"/>
</g>
</svg>
