<?xml version="1.0" encoding="utf-8"?>
<!-- Generator: Adobe Illustrator 24.3.0, SVG Export Plug-In . SVG Version: 6.00 Build 0)  -->
<svg version="1.1" id="Layer_1" xmlns="http://www.w3.org/2000/svg" xmlns:xlink="http://www.w3.org/1999/xlink" x="0px" y="0px"
	 viewBox="0 0 640 640" enable-background="new 0 0 640 640" xml:space="preserve">
<text transform="matrix(1 0 0 1 315.9017 626.8217)" display="none" fill="#006622" enable-background="new    " font-family="'MesloLGMForPowerline-Regular'" font-size="360px">0︀</text>
<g>
	<g>
		
			<linearGradient id="SVGID_1_" gradientUnits="userSpaceOnUse" x1="26.0331" y1="320" x2="352.0331" y2="320" gradientTransform="matrix(1 0 0 -1 0 640)">
			<stop  offset="0" style="stop-color:#D1BFAF"/>
			<stop  offset="1" style="stop-color:#E3D6CA"/>
		</linearGradient>
		<path fill="url(#SVGID_1_)" stroke="#603813" stroke-width="18" stroke-miterlimit="10" d="M82.863,378.5
			c-31.336,0-56.83-25.493-56.83-56.829v-3.341c0-31.336,25.494-56.83,56.83-56.83h212.341c31.336,0,56.829,25.494,56.829,56.83
			v3.341c0,31.336-25.493,56.829-56.829,56.829L82.863,378.5L82.863,378.5z"/>
	</g>
	<g>
		<g>
			
				<line fill="none" stroke="#603813" stroke-width="24" stroke-linecap="round" stroke-miterlimit="10" x1="189.033" y1="205.5" x2="189.033" y2="29.5"/>
			
				<polyline fill="none" stroke="#603813" stroke-width="24" stroke-linecap="round" stroke-linejoin="round" stroke-miterlimit="10" points="
				117.033,133.5 189.033,205.5 261.033,133.5 			"/>
		</g>
		<g>
			
				<line fill="none" stroke="#603813" stroke-width="24" stroke-linecap="round" stroke-miterlimit="10" x1="189.033" y1="434.5" x2="189.033" y2="610.5"/>
			
				<polyline fill="none" stroke="#603813" stroke-width="24" stroke-linecap="round" stroke-linejoin="round" stroke-miterlimit="10" points="
				117.033,506.5 189.033,434.5 261.033,506.5 			"/>
		</g>
	</g>
</g>
<g enable-background="new    ">
	<path fill="#006622" d="M501.874,184.297c28.007,0,49.188,11.426,63.545,34.277c14.354,22.852,21.533,56.662,21.533,101.426
		c0,44.767-7.18,78.574-21.533,101.426c-14.356,22.852-35.538,34.277-63.545,34.277c-28.01,0-49.161-11.426-63.457-34.277
		c-14.299-22.852-21.445-56.659-21.445-101.426c0-44.764,7.146-78.574,21.445-101.426
		C452.712,195.723,473.864,184.297,501.874,184.297z M501.874,212.422c-16.523,0-28.858,8.85-37.002,26.543
		c-8.146,17.696-12.217,44.709-12.217,81.035c0,16.523,1.112,31.992,3.34,46.406l81.914-130.605
		C529.001,220.217,516.991,212.422,501.874,212.422z M501.874,427.578c16.639,0,29.031-8.847,37.178-26.543
		c8.144-17.693,12.217-44.706,12.217-81.035c0-19.336-1.173-36.796-3.516-52.383l-83.672,130.957
		C472.87,417.91,485.465,427.578,501.874,427.578z"/>
</g>
</svg>
