<?xml version="1.0" encoding="utf-8"?>
<!-- Generator: Adobe Illustrator 24.3.0, SVG Export Plug-In . SVG Version: 6.00 Build 0)  -->
<svg version="1.1" id="Layer_1" xmlns="http://www.w3.org/2000/svg" xmlns:xlink="http://www.w3.org/1999/xlink" x="0px" y="0px"
	 viewBox="0 0 640 640" style="enable-background:new 0 0 640 640;" xml:space="preserve">
<style type="text/css">
	.st0{fill:url(#SVGID_1_);}
	.st1{fill:#603813;}
	.st2{fill:none;stroke:#603813;stroke-width:24;stroke-linecap:round;stroke-miterlimit:10;}
	.st3{fill:none;stroke:#603813;stroke-width:24;stroke-linecap:round;stroke-linejoin:round;stroke-miterlimit:10;}
</style>
<g>
	
		<linearGradient id="SVGID_1_" gradientUnits="userSpaceOnUse" x1="244.3249" y1="451.073" x2="395.6753" y2="188.9264" gradientTransform="matrix(1 0 0 -1 0 640)">
		<stop  offset="0" style="stop-color:#D1BFAF"/>
		<stop  offset="1" style="stop-color:#E3D6CA"/>
	</linearGradient>
	<path class="st0" d="M133.8,378.5c-31.3,0-56.8-25.5-56.8-56.8v-3.3c0-31.3,25.5-56.8,56.8-56.8h372.3c31.3,0,56.8,25.5,56.8,56.8
		v3.3c0,31.3-25.5,56.8-56.8,56.8L133.8,378.5L133.8,378.5z"/>
	<path class="st1" d="M506.2,270.5c26.4,0,47.8,21.5,47.8,47.8v3.3c0,26.4-21.5,47.8-47.8,47.8H133.8c-26.4,0-47.8-21.5-47.8-47.8
		v-3.3c0-26.4,21.5-47.8,47.8-47.8L506.2,270.5 M506.2,252.5H133.8C97.5,252.5,68,282,68,318.3v3.3c0,36.4,29.5,65.8,65.8,65.8
		h372.3c36.4,0,65.8-29.5,65.8-65.8v-3.3C572,282,542.5,252.5,506.2,252.5L506.2,252.5z"/>
</g>
<g>
	<g>
		<line class="st2" x1="320" y1="205.5" x2="320" y2="29.5"/>
		<polyline class="st3" points="248,133.5 320,205.5 392,133.5 		"/>
	</g>
	<g>
		<line class="st2" x1="320" y1="434.5" x2="320" y2="610.5"/>
		<polyline class="st3" points="248,506.5 320,434.5 392,506.5 		"/>
	</g>
</g>
</svg>
