<?xml version="1.0" encoding="utf-8"?>
<!-- Generator: Adobe Illustrator 22.0.0, SVG Export Plug-In . SVG Version: 6.00 Build 0)  -->
<svg version="1.1" id="Layer_1" xmlns="http://www.w3.org/2000/svg" xmlns:xlink="http://www.w3.org/1999/xlink" x="0px" y="0px"
	 viewBox="0 0 640 640" enable-background="new 0 0 640 640" xml:space="preserve">
<g id="Layer_1_1_" display="none">
	<g display="inline">
		
			<rect x="21" y="18" fill="#E6E6F2" stroke="#636592" stroke-width="20" stroke-linecap="round" stroke-linejoin="round" stroke-miterlimit="10" width="449" height="449"/>
		
			<polyline fill="none" stroke="#636592" stroke-width="20" stroke-linecap="round" stroke-linejoin="round" stroke-miterlimit="10" points="
			21,18 167.124,159.696 210.519,338.588 21,467 		"/>
		
			<polyline fill="none" stroke="#636592" stroke-width="20" stroke-linecap="round" stroke-linejoin="round" stroke-miterlimit="10" points="
			470,303.164 210.519,338.588 21,219.032 167.124,159.696 257.456,18 353.101,141.099 210.519,338.588 284.023,467 470,303.164 
			353.101,141.099 470,18 		"/>
		
			<line fill="none" stroke="#636592" stroke-width="20" stroke-linecap="round" stroke-linejoin="round" stroke-miterlimit="10" x1="167.124" y1="159.696" x2="353.101" y2="141.099"/>
	</g>
</g>
<g display="none">
	
		<rect x="395" y="400" display="inline" fill="#29ABE2" stroke="#2E3192" stroke-width="20" stroke-linecap="round" stroke-linejoin="round" stroke-miterlimit="10" width="224" height="220"/>
	
		<path display="inline" fill="#29ABE2" stroke="#2E3192" stroke-width="20" stroke-linecap="round" stroke-linejoin="round" stroke-miterlimit="10" d="
		M394.724,620L619,399.783L394.724,620z"/>
</g>
<g>
	<path fill="none" stroke="#C3922E" stroke-width="30" stroke-linecap="round" stroke-linejoin="round" d="M320,331.5
		c0,0,0-28.773,0,105.227"/>
	<polygon fill="#C3922E" points="264.453,394.598 320,418.197 375.547,394.598 320,526.273 	"/>
</g>
<g>
	<path fill="none" stroke="#636592" stroke-width="25" stroke-linejoin="round" d="M31.13,284.968
		c72,11,119.653-17.737,143.782-42.737"/>
	<path fill="none" stroke="#636592" stroke-width="25" stroke-linejoin="round" d="M213.167,194.841
		c69.758-96.232,75.477-167.447,148-152.674c36,7.333,35.667,94.667,39.668,184"/>
	<path fill="none" stroke="#636592" stroke-width="25" stroke-linejoin="round" d="M406.835,281.167
		c8.998,49.667,142.219,87.29,105.665-60.333c-17.333-70-51.974-106.849-87.667-101.849"/>
	<path fill="none" stroke="#636592" stroke-width="25" stroke-linejoin="round" d="M365.833,128.167
		c-22.625,3.461-40.667,6.931-71.833-7.333"/>
	<path fill="none" stroke="#636592" stroke-width="25" stroke-linejoin="round" d="M237.5,94.5
		c-110.667-56.667-147.241,31.705-66.241,106.705S419.833,258.7,488.5,242.231"/>
	<path fill="none" stroke="#636592" stroke-width="25" stroke-linejoin="round" d="M544.167,231.167
		c21.333-4,42.333-9.833,63.333-19.667"/>
</g>
<path fill="none" stroke="#2E3192" stroke-width="25" stroke-linejoin="round" d="M31.13,579.5c282.37,27,410.37-10,581.37-64.547"
	/>
</svg>
