<?xml version="1.0" encoding="utf-8"?>
<!-- Generator: Adobe Illustrator 24.3.0, SVG Export Plug-In . SVG Version: 6.00 Build 0)  -->
<svg version="1.1" id="Layer_1" xmlns="http://www.w3.org/2000/svg" xmlns:xlink="http://www.w3.org/1999/xlink" x="0px" y="0px"
	 viewBox="0 0 640 640" enable-background="new 0 0 640 640" xml:space="preserve">
<text transform="matrix(1 0 0 1 445.0624 575.8083)" display="none" fill="#004517" font-family="'MesloLGMForPowerline-Regular'" font-size="256px">0︀</text>
<g>
	<g display="none">
		<path display="inline" fill="#004517" d="M477.69,613.5c-13.834,0-25.688-3.791-35.562-11.375
			c-9.875-7.582-17.438-18.332-22.688-32.25c-5.25-13.916-7.875-30.416-7.875-49.5v-0.25c0-19.082,2.625-35.582,7.875-49.5
			c5.25-13.916,12.812-24.645,22.688-32.188c9.875-7.541,21.729-11.312,35.562-11.312c13.832,0,25.707,3.771,35.625,11.312
			c9.916,7.543,17.52,18.271,22.812,32.188c5.291,13.918,7.938,30.418,7.938,49.5v0.25c0,19.084-2.646,35.584-7.938,49.5
			c-5.293,13.918-12.896,24.668-22.812,32.25C503.397,609.709,491.522,613.5,477.69,613.5z M477.69,593.875
			c9.166,0,17.02-2.979,23.562-8.938c6.541-5.957,11.541-14.438,15-25.438c3.457-11,5.188-24.041,5.188-39.125v-0.25
			c0-15.082-1.73-28.104-5.188-39.062c-3.459-10.957-8.459-19.395-15-25.312c-6.543-5.916-14.396-8.875-23.562-8.875
			c-9.168,0-17,2.959-23.5,8.875c-6.5,5.918-11.459,14.355-14.875,25.312c-3.418,10.959-5.125,23.98-5.125,39.062v0.25
			c0,15.084,1.707,28.125,5.125,39.125c3.416,11,8.375,19.48,14.875,25.438C460.69,590.896,468.522,593.875,477.69,593.875z"/>
	</g>
</g>
<g>
	<g>
		<linearGradient id="SVGID_1_" gradientUnits="userSpaceOnUse" x1="30.988" y1="320" x2="416.988" y2="320">
			<stop  offset="0" style="stop-color:#D1BFAF"/>
			<stop  offset="1" style="stop-color:#E3D6CA"/>
		</linearGradient>
		<path fill="url(#SVGID_1_)" stroke="#603813" stroke-width="18" stroke-miterlimit="10" d="M87.818,378.5
			c-31.336,0-56.83-25.493-56.83-56.829v-3.341c0-31.336,25.494-56.83,56.83-56.83h272.341c31.336,0,56.829,25.494,56.829,56.83
			v3.341c0,31.336-25.493,56.829-56.829,56.829L87.818,378.5L87.818,378.5z"/>
	</g>
	<g>
		<g>
			
				<line fill="none" stroke="#603813" stroke-width="24" stroke-linecap="round" stroke-miterlimit="10" x1="223.988" y1="205.5" x2="223.988" y2="29.5"/>
			
				<polyline fill="none" stroke="#603813" stroke-width="24" stroke-linecap="round" stroke-linejoin="round" stroke-miterlimit="10" points="
				151.988,133.5 223.988,205.5 295.988,133.5 			"/>
		</g>
		<g>
			
				<line fill="none" stroke="#603813" stroke-width="24" stroke-linecap="round" stroke-miterlimit="10" x1="223.988" y1="434.5" x2="223.988" y2="610.5"/>
			
				<polyline fill="none" stroke="#603813" stroke-width="24" stroke-linecap="round" stroke-linejoin="round" stroke-miterlimit="10" points="
				151.988,506.5 223.988,434.5 295.988,506.5 			"/>
		</g>
	</g>
</g>
<circle fill="#6AB381" cx="495" cy="145" r="117"/>
<g display="none">
	<path display="inline" fill="#004517" d="M494.938,48.5c19.916,0,34.979,8.125,45.188,24.375
		c10.207,16.25,15.312,40.293,15.312,72.125c0,31.834-5.105,55.875-15.312,72.125c-10.209,16.25-25.271,24.375-45.188,24.375
		c-19.918,0-34.959-8.125-45.125-24.375c-10.168-16.25-15.25-40.291-15.25-72.125c0-31.832,5.082-55.875,15.25-72.125
		C459.979,56.625,475.02,48.5,494.938,48.5z M494.938,68.5c-11.75,0-20.521,6.293-26.312,18.875
		c-5.793,12.584-8.688,31.793-8.688,57.625c0,11.75,0.791,22.75,2.375,33l58.25-92.875C514.229,74.043,505.688,68.5,494.938,68.5z
		 M494.938,221.5c11.832,0,20.645-6.291,26.438-18.875c5.791-12.582,8.688-31.791,8.688-57.625c0-13.75-0.834-26.166-2.5-37.25
		l-59.5,93.125C474.312,214.625,483.27,221.5,494.938,221.5z"/>
</g>
<g>
	<path fill="#004517" d="M494.875,238.187c-13.834,0-25.688-3.791-35.562-11.375c-9.875-7.582-17.438-18.332-22.688-32.25
		c-5.25-13.916-7.875-30.416-7.875-49.5v-0.25c0-19.082,2.625-35.582,7.875-49.5c5.25-13.916,12.812-24.645,22.688-32.188
		c9.875-7.541,21.729-11.312,35.562-11.312c13.832,0,25.707,3.771,35.625,11.312c9.916,7.543,17.52,18.271,22.812,32.188
		c5.291,13.918,7.938,30.418,7.938,49.5v0.25c0,19.084-2.646,35.584-7.938,49.5c-5.293,13.917-12.896,24.667-22.812,32.25
		C520.582,234.396,508.707,238.187,494.875,238.187z M494.875,218.562c9.166,0,17.02-2.979,23.562-8.938
		c6.541-5.957,11.541-14.437,15-25.437c3.457-11,5.188-24.041,5.188-39.125v-0.25c0-15.082-1.73-28.104-5.188-39.062
		c-3.459-10.957-8.459-19.395-15-25.312c-6.543-5.916-14.396-8.875-23.562-8.875c-9.168,0-17,2.959-23.5,8.875
		c-6.5,5.918-11.459,14.355-14.875,25.312c-3.418,10.959-5.125,23.98-5.125,39.062v0.25c0,15.084,1.707,28.125,5.125,39.125
		c3.416,11,8.375,19.48,14.875,25.437C477.875,215.584,485.707,218.562,494.875,218.562z"/>
</g>
</svg>
