<?xml version="1.0" encoding="utf-8"?>
<!-- Generator: Adobe Illustrator 24.3.0, SVG Export Plug-In . SVG Version: 6.00 Build 0)  -->
<svg version="1.1"
	 id="Layer_1" inkscape:version="1.3.2 (091e20e, 2023-11-25)" sodipodi:docname="whitehead-double.svg" xmlns:inkscape="http://www.inkscape.org/namespaces/inkscape" xmlns:sodipodi="http://sodipodi.sourceforge.net/DTD/sodipodi-0.dtd" xmlns:svg="http://www.w3.org/2000/svg"
	 xmlns="http://www.w3.org/2000/svg" xmlns:xlink="http://www.w3.org/1999/xlink" x="0px" y="0px" viewBox="0 0 640 640"
	 style="enable-background:new 0 0 640 640;" xml:space="preserve">
<style type="text/css">
	.st0{fill:#4D4D4D;stroke:#4D4D4D;stroke-width:24;stroke-miterlimit:10;}
	.st1{fill:#CCCCCC;stroke:#4D4D4D;stroke-width:24;stroke-linejoin:round;}
	.st2{fill:#4D4D4D;}
</style>
<line class="st0" x1="171" y1="329.5" x2="103.5" y2="545.5"/>
<line class="st0" x1="436.5" y1="329.5" x2="342" y2="545.5"/>
<line class="st0" x1="526.5" y1="545.5" x2="436.5" y2="329.5"/>
<line class="st0" x1="333" y1="113.5" x2="436.5" y2="329.5"/>
<line class="st0" x1="333" y1="113.5" x2="171" y2="329.5"/>
<sodipodi:namedview  bordercolor="#000000" borderopacity="0.25" id="namedview4" inkscape:current-layer="Layer_1" inkscape:cx="318.64407" inkscape:cy="320" inkscape:deskcolor="#d1d1d1" inkscape:pagecheckerboard="0" inkscape:pageopacity="0.0" inkscape:showpageshadow="2" inkscape:window-height="449" inkscape:window-maximized="0" inkscape:window-width="1312" inkscape:window-x="0" inkscape:window-y="38" inkscape:zoom="0.36875" pagecolor="#ffffff">
	</sodipodi:namedview>
<sodipodi:namedview  bordercolor="#000000" borderopacity="0.25" id="namedview4" inkscape:current-layer="Layer_1" inkscape:cx="318.64407" inkscape:cy="320" inkscape:deskcolor="#d1d1d1" inkscape:pagecheckerboard="0" inkscape:pageopacity="0.0" inkscape:showpageshadow="2" inkscape:window-height="449" inkscape:window-maximized="0" inkscape:window-width="1312" inkscape:window-x="0" inkscape:window-y="38" inkscape:zoom="0.36875" pagecolor="#ffffff">
	</sodipodi:namedview>
<g>
	<ellipse class="st1" cx="333" cy="113.5" rx="117" ry="58.5"/>
	<circle class="st2" cx="265.5" cy="113.5" r="13.5"/>
	<circle class="st2" cx="310.5" cy="113.5" r="13.5"/>
	<circle class="st2" cx="355.5" cy="113.5" r="13.5"/>
	<circle class="st2" cx="400.5" cy="113.5" r="13.5"/>
</g>
<g>
	<ellipse class="st1" cx="436.5" cy="329.5" rx="94.5" ry="58.5"/>
	<circle class="st2" cx="391.5" cy="329.5" r="13.5"/>
	<circle class="st2" cx="481.5" cy="329.5" r="13.5"/>
	<circle class="st2" cx="436.5" cy="329.5" r="13.5"/>
</g>
<g>
	<circle class="st1" cx="103.5" cy="545.5" r="58.5"/>
	<circle class="st2" cx="103.5" cy="545.5" r="13.5"/>
</g>
<g>
	<ellipse class="st1" cx="342" cy="545.5" rx="72" ry="58.5"/>
	<circle class="st2" cx="319.5" cy="545.5" r="13.5"/>
	<circle class="st2" cx="364.5" cy="545.5" r="13.5"/>
</g>
<g>
	<circle class="st1" cx="526.5" cy="545.5" r="58.5"/>
	<circle class="st2" cx="526.5" cy="545.5" r="13.5"/>
</g>
<g>
	<ellipse class="st1" cx="171" cy="329.5" rx="72" ry="58.5"/>
	<circle class="st2" cx="148.5" cy="329.5" r="13.5"/>
	<circle class="st2" cx="193.5" cy="329.5" r="13.5"/>
</g>
</svg>
