<?xml version="1.0" encoding="utf-8"?>
<!-- Generator: Adobe Illustrator 24.3.0, SVG Export Plug-In . SVG Version: 6.00 Build 0)  -->
<svg version="1.1" id="Layer_1" xmlns="http://www.w3.org/2000/svg" xmlns:xlink="http://www.w3.org/1999/xlink" x="0px" y="0px"
	 viewBox="0 0 640 640" enable-background="new 0 0 640 640" xml:space="preserve">
<g>
	
		<linearGradient id="SVGID_1_" gradientUnits="userSpaceOnUse" x1="410.3971" y1="370.7992" x2="534.3417" y2="585.4777" gradientTransform="matrix(0.8583 -0.5131 0.5131 0.8583 -168.4556 280.405)">
		<stop  offset="0" style="stop-color:#84E5F1"/>
		<stop  offset="1" style="stop-color:#C3ECF1"/>
	</linearGradient>
	<path fill="url(#SVGID_1_)" d="M301.948,517.497c56.063,58.269,189.52,79.865,259.553,43.482L479.91,270.366"/>
	<circle fill="#143E51" cx="479.91" cy="270.366" r="30"/>
	
		<line fill="none" stroke="#143E51" stroke-width="22" stroke-linecap="round" stroke-linejoin="round" stroke-miterlimit="10" x1="479.91" y1="270.366" x2="561.501" y2="560.978"/>
	
		<line fill="none" stroke="#143E51" stroke-width="22" stroke-linecap="round" stroke-linejoin="round" stroke-miterlimit="10" x1="301.948" y1="517.497" x2="479.91" y2="270.366"/>
</g>
<g>
	
		<linearGradient id="SVGID_2_" gradientUnits="userSpaceOnUse" x1="129.76" y1="129.9561" x2="253.7047" y2="344.6347" gradientTransform="matrix(0.8005 0.5993 -0.5993 0.8005 154.0459 -76.9186)">
		<stop  offset="0" style="stop-color:#84E5F1"/>
		<stop  offset="1" style="stop-color:#C3ECF1"/>
	</linearGradient>
	<path fill="url(#SVGID_2_)" d="M68.157,91.497c-32.626,73.986-1.944,205.652,58.3,256.631l159.128-124.287l-14.797-83.888
		L68.157,91.497z"/>
	<circle fill="#143E51" cx="364.345" cy="162.327" r="30"/>
	
		<line fill="none" stroke="#143E51" stroke-width="22" stroke-linecap="round" stroke-linejoin="round" stroke-miterlimit="10" x1="285.586" y1="223.842" x2="126.458" y2="348.128"/>
	
		<line fill="none" stroke="#143E51" stroke-width="22" stroke-linecap="round" stroke-linejoin="round" stroke-miterlimit="10" x1="68.157" y1="91.497" x2="270.789" y2="139.954"/>
	
		<line fill="none" stroke="#7E1EC7" stroke-width="22" stroke-linecap="round" stroke-linejoin="round" stroke-miterlimit="10" x1="261.101" y1="85.028" x2="295.708" y2="281.229"/>
</g>
</svg>
